<svg version="1.0" xmlns="http://www.w3.org/2000/svg"
 width="1080.000000pt" height="589.000000pt" viewBox="0 0 1080.000000 589.000000"
 preserveAspectRatio="xMidYMid meet">

<g transform="translate(0.000000,589.000000) scale(0.100000,-0.100000)"
fill="#fff" stroke="none">
<path d="M6961 5770 c-446 -31 -875 -224 -1187 -535 -95 -95 -141 -169 -151
-243 -7 -51 21 -146 57 -195 15 -20 440 -451 944 -957 504 -506 916 -924 916
-929 0 -5 -417 -422 -926 -928 -509 -505 -936 -936 -950 -958 -85 -145 -37
-292 160 -491 218 -220 513 -357 901 -420 158 -25 528 -30 700 -9 362 44 681
166 939 359 38 29 552 543 1175 1177 870 885 1113 1137 1131 1175 16 35 23 68
23 115 2 130 67 59 -1160 1260 -609 596 -1132 1104 -1162 1128 -298 234 -759
420 -1106 446 -161 12 -192 12 -304 5z m388 -580 c132 -27 250 -68 396 -140
233 -114 207 -90 1284 -1145 545 -533 990 -973 989 -977 -4 -9 -209 -219 -567
-582 l-276 -278 -1432 1438 c-788 792 -1433 1444 -1433 1450 0 23 180 126 304
173 94 36 214 67 311 80 102 14 307 5 424 -19z m1015 -3100 l418 -420 -180
-188 c-272 -283 -571 -575 -625 -611 -77 -52 -244 -127 -354 -160 -310 -91
-734 -89 -1035 5 -97 30 -230 93 -273 129 l-30 25 825 820 c454 450 828 819
831 820 3 0 194 -189 423 -420z"/>
<path d="M3465 5755 c-332 -40 -652 -162 -955 -363 -130 -86 -63 -23 -1070
-1008 -1454 -1421 -1329 -1295 -1352 -1362 -7 -20 -12 -65 -12 -98 1 -114 7
-121 506 -629 248 -253 697 -710 997 -1015 300 -305 589 -599 641 -653 281
-291 617 -450 1115 -529 105 -16 533 -16 640 1 405 62 679 173 909 365 77 64
180 189 222 269 34 64 38 80 38 142 0 53 -6 82 -24 119 -22 47 -384 411 -1633
1646 -142 140 -256 260 -255 267 2 7 248 259 548 561 1308 1313 1325 1331
1350 1397 40 108 15 202 -83 312 -225 253 -580 458 -945 544 -195 47 -434 59
-637 34z m485 -569 c104 -24 198 -55 286 -96 96 -44 224 -125 224 -141 0 -6
-465 -477 -1032 -1048 -568 -570 -1210 -1215 -1428 -1433 -217 -219 -399 -398
-405 -398 -18 0 -847 849 -840 860 4 6 450 445 993 976 693 680 1007 980 1059
1015 207 140 462 243 688 279 84 13 376 4 455 -14z m-966 -2833 c498 -489
1496 -1484 1496 -1492 0 -14 -108 -77 -190 -111 -167 -69 -332 -100 -576 -107
-267 -8 -491 25 -686 103 -188 74 -282 140 -463 326 -71 73 -231 235 -355 361
l-225 227 420 420 c231 231 422 420 425 420 2 0 72 -66 154 -147z"/>
</g>
</svg>
